# xmcd
#
# Track frame offsets: 
#        150
#        16650
#        32637
#        46745
#        59655
#        79215
#        87610
#        98300
#        111332
#        122857
#        143187
#        155662
#        164467
#        178440
#        192532
#
# Disc length: 2794 seconds
#
# Revision: 8
# Processed by: cddbd v1.5.2PL0 Copyright (c) Steve Scherf et al.
# Submitted via: ExactAudioCopy v1.0b3
#
DISCID=d00ae80f
DTITLE=Van Morrison - Lonnie Donegan - Chris Barber - Paul Henry - Big Jim
DTITLE=Sullivan - Nick Payne - Nicky Scott - Alan Wicket - Chris Hunt - T
DTITLE=he skiffle sessions
DYEAR=2000
DGENRE=Rock
TTITLE0=It takes a worried man
TTITLE1=Lost John
TTITLE2=Van Morrison - Lonnie Donegan - Chris Barber - Paul Henry - Big Ji
TTITLE2=m Sullivan - Nick Payne - Nicky Scott - Alan Wicket - Chris Hunt - 
TTITLE2=Dr. John - Goin' home
TTITLE3=Van Morrison - Lonnie Donegan - Chris Barber - Paul Henry - Big Ji
TTITLE3=m Sullivan - Nick Payne - Nicky Scott - Alan Wicket - Chris Hunt - 
TTITLE3=Dr. John - Good morning blues
TTITLE4=Outskirts of town
TTITLE5=Don't you rock me, Daddio
TTITLE6=Alabamy bound
TTITLE7=Midnight special
TTITLE8=Dead or alive
TTITLE9=Frankie and Johnny
TTITLE10=Goodnight, Irene
TTITLE11=Railroad Bill
TTITLE12=Muleskinner blues
TTITLE13=The ballad of Jesse James
TTITLE14=I wanna go home
EXTD=ID3G: 78
EXTT0=
EXTT1=
EXTT2=
EXTT3=
EXTT4=
EXTT5=
EXTT6=
EXTT7=
EXTT8=
EXTT9=
EXTT10=
EXTT11=
EXTT12=
EXTT13=
EXTT14=
PLAYORDER=
